# xmcd
#
# Track frame offsets: 
#        150
#        22681
#        38682
#        56213
#        76228
#        94782
#        127470
#        146146
#        164060
#        183644
#        211489
#        233842
#        253174
#        274848
#        290138
#
# Disc length: 4070 seconds
#
# Revision: 0
# Processed by: cddbd v1.5.2PL0 Copyright (c) Steve Scherf et al.
# Submitted via: ExactAudioCopy v0.95a4
#
DISCID=eb0fe40f
DTITLE=Venice - Homegrown
DYEAR=2008
DGENRE=Easy Listening
TTITLE0=One Quiet Day
TTITLE1=The Road To Where You Are
TTITLE2=Always
TTITLE3=The Man You Think I Am
TTITLE4=Rivers Never Run
TTITLE5=Baby's Calling
TTITLE6=Bittersweet Life
TTITLE7=Think Again
TTITLE8=If I Were You
TTITLE9=Back To The Well
TTITLE10=The Water
TTITLE11=Right Were We Left Off
TTITLE12=Weight Has Been Lifted
TTITLE13=Starting Here Again
TTITLE14=The Family Tree
EXTD=
EXTT0=
EXTT1=
EXTT2=
EXTT3=
EXTT4=
EXTT5=
EXTT6=
EXTT7=
EXTT8=
EXTT9=
EXTT10=
EXTT11=
EXTT12=
EXTT13=
EXTT14=
PLAYORDER=
